<?xml version="1.0" encoding="UTF-8"?>
<svg id="Layer_1" xmlns="http://www.w3.org/2000/svg" viewBox="0 0 247.26 242.99">
  <ellipse cx="123.63" cy="121.49" rx="123.63" ry="121.49" fill="#c2b59b" opacity=".8"/>
  <g>
    <path d="M188.64,75.06c0-5.98,2.83-11.05,6.73-12.77-1.07-.41-2.2-.63-3.39-.63h-75.88c-6.16,0-11.15,6-11.15,13.4,0,7.4,4.99,13.4,11.15,13.4h75.88c1.18,0,2.32-.22,3.39-.63-3.9-1.72-6.73-6.79-6.73-12.77Z" fill="#231f20"/>
    <path d="M185.21,78.06c0-5.98,2.83-11.05,6.73-12.77-1.07-.41-2.2-.63-3.39-.63h-75.88c-6.16,0-11.15,6-11.15,13.4s4.99,13.4,11.15,13.4h75.88c1.18,0,2.32-.22,3.39-.63-3.9-1.72-6.73-6.79-6.73-12.77Z" fill="#009444" stroke="#231f20" stroke-miterlimit="10" stroke-width="2"/>
    <path d="M182.64,135.23c0-6.32,2.83-11.67,6.73-13.49-1.07-.43-2.2-.67-3.39-.67h-75.88c-6.16,0-11.15,6.34-11.15,14.16,0,7.82,4.99,14.16,11.15,14.16h75.88c1.18,0,2.32-.24,3.39-.67-3.9-1.82-6.73-7.17-6.73-13.49Z" fill="#231f20"/>
    <path d="M178.8,138.23c0-6.32,2.83-11.67,6.73-13.49-1.07-.43-2.2-.67-3.39-.67h-75.88c-6.16,0-11.15,6.34-11.15,14.16,0,7.82,4.99,14.16,11.15,14.16h75.88c1.18,0,2.32-.24,3.39-.67-3.9-1.82-6.73-7.17-6.73-13.49Z" fill="#f7941d" stroke="#231f20" stroke-miterlimit="10" stroke-width="2"/>
    <path d="M176.64,104.76c0-6.38,2.83-11.79,6.73-13.63-1.07-.44-2.2-.68-3.39-.68h-75.88c-6.16,0-11.15,6.4-11.15,14.3s4.99,14.3,11.15,14.3h75.88c1.18,0,2.32-.24,3.39-.68-3.9-1.84-6.73-7.24-6.73-13.63Z" fill="#231f20"/>
    <path d="M173.15,107.76c0-6.38,2.83-11.79,6.73-13.63-1.07-.44-2.2-.68-3.39-.68h-75.88c-6.16,0-11.15,6.4-11.15,14.3s4.99,14.3,11.15,14.3h75.88c1.18,0,2.32-.24,3.39-.68-3.9-1.84-6.73-7.24-6.73-13.63Z" fill="#1c75bc" stroke="#231f20" stroke-miterlimit="10" stroke-width="2"/>
    <path d="M81.94,78.3c-5.76-1.63-9.92-5.49-10.61-9.37-.66.82-1.16,1.76-1.45,2.79l-18.83,66.36c-1.53,5.39,3.01,11.39,10.13,13.41,7.12,2.02,14.13-.71,15.66-6.09l18.83-66.36c.29-1.03.36-2.09.23-3.13-2.63,2.94-8.2,4.04-13.95,2.4Z" fill="#231f20" stroke="#231f20" stroke-miterlimit="10" stroke-width="2"/>
    <path d="M79.1,77.53c-5.76-1.63-9.92-5.49-10.61-9.37-.66.82-1.16,1.76-1.45,2.79l-18.83,66.36c-1.53,5.39,3.01,11.39,10.13,13.41,7.12,2.02,14.13-.71,15.66-6.09l18.83-66.36c.29-1.03.36-2.09.23-3.13-2.63,2.94-8.2,4.04-13.95,2.4Z" fill="#da1c5c" stroke="#231f20" stroke-miterlimit="10" stroke-width="2"/>
    <rect x="33.75" y="153.39" width="179.76" height="6.72" fill="#231f20" stroke="#231f20" stroke-miterlimit="10" stroke-width="2"/>
  </g>
  <g>
    <path d="M68.14,177.73c1.06.39,1.81.87,2.23,1.44s.64,1.32.64,2.24c0,1.04-.46,1.91-1.39,2.62s-2.07,1.07-3.42,1.07h-6.53v-14.64h5.59c1.58,0,2.87.35,3.88,1.05,1.01.7,1.51,1.59,1.51,2.67,0,.88-.2,1.59-.6,2.13s-1.04,1.02-1.91,1.42ZM63.61,176.65h.81c.67,0,1.2-.17,1.59-.51s.59-.79.59-1.37c0-1.31-.83-1.97-2.48-1.97h-.51v3.84ZM63.61,182.72l1.14-.02c.67,0,1.2-.18,1.57-.5s.56-.79.56-1.39c0-1.29-.82-1.93-2.46-1.93h-.81v3.86Z" fill="#231f20"/>
    <path d="M73.39,177.71c0-2.05.28-3.56.83-4.52s1.29-1.71,2.21-2.24,2.08-.8,3.48-.8c1.16,0,2.09.15,2.8.46s1.37.76,1.98,1.35,1.05,1.32,1.34,2.19.42,2.03.42,3.46c0,2.95-.61,4.98-1.83,6.1-1.22,1.12-2.8,1.68-4.74,1.68s-3.55-.58-4.73-1.74-1.77-3.14-1.77-5.95ZM77.55,176.81v.94c0,1.54.06,2.55.19,3.04s.4.87.81,1.15c.41.28.91.42,1.48.42.47,0,.9-.14,1.28-.41.39-.27.66-.69.82-1.25s.23-1.55.23-2.98c0-1.28-.07-2.19-.2-2.74s-.4-.98-.8-1.32c-.4-.34-.89-.5-1.46-.5-.84,0-1.44.29-1.81.87-.37.58-.55,1.51-.55,2.77Z" fill="#231f20"/>
    <path d="M88.97,177.71c0-2.05.28-3.56.83-4.52s1.29-1.71,2.21-2.24,2.08-.8,3.48-.8c1.16,0,2.09.15,2.8.46s1.37.76,1.98,1.35,1.05,1.32,1.34,2.19.42,2.03.42,3.46c0,2.95-.61,4.98-1.83,6.1-1.22,1.12-2.8,1.68-4.74,1.68s-3.55-.58-4.73-1.74-1.77-3.14-1.77-5.95ZM93.13,176.81v.94c0,1.54.06,2.55.19,3.04s.4.87.81,1.15c.41.28.91.42,1.48.42.47,0,.9-.14,1.28-.41.39-.27.66-.69.82-1.25s.23-1.55.23-2.98c0-1.28-.07-2.19-.2-2.74s-.4-.98-.8-1.32c-.4-.34-.89-.5-1.46-.5-.84,0-1.44.29-1.81.87-.37.58-.55,1.51-.55,2.77Z" fill="#231f20"/>
    <path d="M116.9,185.1h-4.17l-3.65-7.39h-.06v7.39h-3.99v-14.64h3.99v6.69h.06l3.49-6.69h4.04l-3.86,6.96,4.15,7.67Z" fill="#231f20"/>
    <path d="M134.89,170.46h3.97l-5.14,14.64h-3.77l-5.21-14.64h4.16l2.93,9.43,3.05-9.43Z" fill="#231f20"/>
    <path d="M152.51,185.1h-3.85l-.61-2.29h-4.8l-.66,2.29h-3.86l5.21-14.64h4l4.57,14.64ZM147.49,180.45l-1.61-6.4h-.06s-1.85,6.4-1.85,6.4h3.52Z" fill="#231f20"/>
    <path d="M165.91,180.97c0,1.38-.51,2.46-1.54,3.24-1.03.79-2.45,1.18-4.27,1.18s-3.34-.4-4.36-1.21c-1.02-.8-1.53-1.96-1.53-3.46v-10.27h3.97v9.76c0,.69.17,1.22.5,1.59s.81.56,1.41.56c.56,0,1.01-.18,1.34-.54.33-.36.49-.84.49-1.45v-9.91h3.99v10.51Z" fill="#231f20"/>
    <path d="M177.78,185.1h-8.53v-14.64h3.91v11.75h4.61v2.88Z" fill="#231f20"/>
    <path d="M189.27,173.3h-3.55v11.8h-3.94v-11.78h-3.62v-2.86h11.11v2.84Z" fill="#231f20"/>
  </g>
</svg>