<?xml version="1.0" encoding="UTF-8"?>
<svg id="Layer_1" xmlns="http://www.w3.org/2000/svg" xmlns:xlink="http://www.w3.org/1999/xlink" viewBox="0 0 247.26 242.99">
  <defs>
    <radialGradient id="radial-gradient" cx="123.63" cy="121.49" fx="123.63" fy="121.49" r="122.57" gradientUnits="userSpaceOnUse">
      <stop offset="0" stop-color="#fff33b"/>
      <stop offset=".04" stop-color="#fee62d"/>
      <stop offset=".12" stop-color="#fdd51b"/>
      <stop offset=".2" stop-color="#fdca0f"/>
      <stop offset=".28" stop-color="#fdc70c"/>
      <stop offset=".67" stop-color="#f3903f"/>
      <stop offset=".89" stop-color="#ed683c"/>
      <stop offset="1" stop-color="#e93e3a"/>
    </radialGradient>
  </defs>
  <ellipse cx="123.63" cy="121.49" rx="123.63" ry="121.49" fill="url(#radial-gradient)" opacity=".8"/>
  <g>
    <path d="M188.64,74.99c0-5.98,2.83-11.05,6.73-12.77-1.07-.41-2.2-.63-3.39-.63h-75.88c-6.16,0-11.15,6-11.15,13.4s4.99,13.4,11.15,13.4h75.88c1.18,0,2.32-.22,3.39-.63-3.9-1.72-6.73-6.79-6.73-12.77Z" fill="#231f20"/>
    <path d="M185.21,77.99c0-5.98,2.83-11.05,6.73-12.77-1.07-.41-2.2-.63-3.39-.63h-75.88c-6.16,0-11.15,6-11.15,13.4s4.99,13.4,11.15,13.4h75.88c1.18,0,2.32-.22,3.39-.63-3.9-1.72-6.73-6.79-6.73-12.77Z" fill="#009444" stroke="#231f20" stroke-miterlimit="10" stroke-width="2"/>
    <path d="M182.64,135.16c0-6.32,2.83-11.67,6.73-13.49-1.07-.43-2.2-.67-3.39-.67h-75.88c-6.16,0-11.15,6.34-11.15,14.16,0,7.82,4.99,14.16,11.15,14.16h75.88c1.18,0,2.32-.24,3.39-.67-3.9-1.82-6.73-7.17-6.73-13.49Z" fill="#231f20"/>
    <path d="M178.8,138.16c0-6.32,2.83-11.67,6.73-13.49-1.07-.43-2.2-.67-3.39-.67h-75.88c-6.16,0-11.15,6.34-11.15,14.16,0,7.82,4.99,14.16,11.15,14.16h75.88c1.18,0,2.32-.24,3.39-.67-3.9-1.82-6.73-7.17-6.73-13.49Z" fill="#f7941d" stroke="#231f20" stroke-miterlimit="10" stroke-width="2"/>
    <path d="M176.64,104.7c0-6.38,2.83-11.79,6.73-13.63-1.07-.44-2.2-.68-3.39-.68h-75.88c-6.16,0-11.15,6.4-11.15,14.3s4.99,14.3,11.15,14.3h75.88c1.18,0,2.32-.24,3.39-.68-3.9-1.84-6.73-7.24-6.73-13.63Z" fill="#231f20"/>
    <path d="M173.15,107.7c0-6.38,2.83-11.79,6.73-13.63-1.07-.44-2.2-.68-3.39-.68h-75.88c-6.16,0-11.15,6.4-11.15,14.3s4.99,14.3,11.15,14.3h75.88c1.18,0,2.32-.24,3.39-.68-3.9-1.84-6.73-7.24-6.73-13.63Z" fill="#1c75bc" stroke="#231f20" stroke-miterlimit="10" stroke-width="2"/>
    <path d="M81.94,78.24c-5.76-1.63-9.92-5.49-10.61-9.37-.66.82-1.16,1.76-1.45,2.79l-18.83,66.36c-1.53,5.39,3.01,11.39,10.13,13.41s14.13-.71,15.66-6.09l18.83-66.36c.29-1.03.36-2.09.23-3.13-2.63,2.94-8.2,4.04-13.95,2.4Z" fill="#231f20" stroke="#231f20" stroke-miterlimit="10" stroke-width="2"/>
    <path d="M79.1,77.46c-5.76-1.63-9.92-5.49-10.61-9.37-.66.82-1.16,1.76-1.45,2.79l-18.83,66.36c-1.53,5.39,3.01,11.39,10.13,13.41,7.12,2.02,14.13-.71,15.66-6.09l18.83-66.36c.29-1.03.36-2.09.23-3.13-2.63,2.94-8.2,4.04-13.95,2.4Z" fill="#da1c5c" stroke="#231f20" stroke-miterlimit="10" stroke-width="2"/>
    <rect x="33.75" y="153.32" width="179.76" height="6.72" rx="2.65" ry="2.65" fill="#231f20" stroke="#231f20" stroke-miterlimit="10" stroke-width="2"/>
  </g>
  <g>
    <path d="M68.22,167.74h3.2c1.74,0,3.02.31,3.85.94.83.63,1.24,1.61,1.24,2.95,0,1.89-.98,3.09-2.94,3.6,2.13.32,3.2,1.56,3.2,3.73,0,1.19-.39,2.1-1.16,2.75-.77.64-1.88.97-3.31.97h-4.07v-14.93ZM70.92,169.28v5.19c1.04-.02,1.8-.22,2.27-.6s.71-1.03.71-1.96c0-1.01-.2-1.7-.61-2.07-.41-.38-1.2-.56-2.36-.56ZM70.92,175.96v5.2c1.08-.02,1.85-.19,2.32-.52s.69-.98.69-1.95c0-1.03-.23-1.74-.7-2.13-.47-.39-1.24-.59-2.31-.6Z" fill="#231f20"/>
    <path d="M79.96,175.17c0-3.24.43-5.34,1.3-6.29.86-.95,2.29-1.43,4.27-1.43,2.27,0,3.78.53,4.53,1.6.75,1.07,1.12,2.98,1.12,5.75,0,2.48-.17,4.2-.5,5.16-.33.96-.91,1.67-1.73,2.12-.82.45-1.94.68-3.35.68s-2.57-.21-3.34-.63c-.77-.42-1.35-1.1-1.73-2.03s-.56-2.58-.56-4.94ZM88.31,175.29c0-2.83-.23-4.58-.68-5.25-.45-.67-1.13-1-2.04-1-1.06,0-1.79.4-2.19,1.2s-.59,2.15-.59,4.04v.82c0,2.12.16,3.66.48,4.63.32.97,1.09,1.46,2.3,1.46.74,0,1.38-.27,1.92-.82.53-.55.8-2.06.8-4.53v-.55Z" fill="#231f20"/>
    <path d="M94.89,175.17c0-3.24.43-5.34,1.3-6.29.86-.95,2.29-1.43,4.27-1.43,2.27,0,3.78.53,4.53,1.6.75,1.07,1.12,2.98,1.12,5.75,0,2.48-.17,4.2-.5,5.16-.33.96-.91,1.67-1.73,2.12-.82.45-1.94.68-3.35.68s-2.57-.21-3.34-.63c-.77-.42-1.35-1.1-1.73-2.03s-.56-2.58-.56-4.94ZM103.24,175.29c0-2.83-.23-4.58-.68-5.25-.45-.67-1.13-1-2.04-1-1.06,0-1.79.4-2.19,1.2s-.59,2.15-.59,4.04v.82c0,2.12.16,3.66.48,4.63.32.97,1.09,1.46,2.3,1.46.74,0,1.38-.27,1.92-.82.53-.55.8-2.06.8-4.53v-.55Z" fill="#231f20"/>
    <path d="M120.38,182.67h-3.13l-4.4-7.58h-.08v7.58h-2.77v-14.93h2.77v7.39h.08l4.72-7.39h2.78l-4.94,7.25,4.97,7.68Z" fill="#231f20"/>
    <path d="M128.19,167.74h2.65l2.55,11.28,2.74-11.28h2.6l-4.26,14.93h-2.16l-4.11-14.93Z" fill="#231f20"/>
    <path d="M150.16,182.67h-2.64l-.74-2.95h-4.29l-.75,2.95h-2.6l4.38-14.93h2.24l4.41,14.93ZM146.41,178.21l-1.78-7.08h-.07l-1.69,7.08h3.53Z" fill="#231f20"/>
    <path d="M161.9,179.15c0,2.49-1.52,3.74-4.55,3.74-3.33,0-5-1.24-5-3.71v-11.4h2.71v10.56c0,1.13.13,1.92.4,2.35.26.43.84.65,1.73.65s1.45-.23,1.67-.69.33-1.27.33-2.43v-10.44h2.71v11.38Z" fill="#231f20"/>
    <path d="M173.15,182.67h-7.34v-14.93h2.74v13.25h4.6v1.68Z" fill="#231f20"/>
    <path d="M182.78,169.44h-3.1v13.23h-2.74v-13.23h-3.09v-1.7h8.93v1.7Z" fill="#231f20"/>
  </g>
  <g>
    <path d="M65.97,167.75h3.2c1.74,0,3.02.31,3.85.94.83.63,1.24,1.61,1.24,2.95,0,1.89-.98,3.09-2.94,3.6,2.13.32,3.2,1.56,3.2,3.73,0,1.19-.39,2.1-1.16,2.75-.77.64-1.88.97-3.31.97h-4.07v-14.93ZM68.67,169.28v5.19c1.04-.02,1.8-.22,2.27-.6s.71-1.03.71-1.96c0-1.01-.2-1.7-.61-2.07-.41-.38-1.2-.56-2.36-.56ZM68.67,175.96v5.2c1.08-.02,1.85-.19,2.32-.52s.69-.98.69-1.95c0-1.03-.23-1.74-.7-2.13-.47-.39-1.24-.59-2.31-.6Z" fill="#1c75bc"/>
    <path d="M77.71,175.17c0-3.24.43-5.34,1.3-6.29.86-.95,2.29-1.43,4.27-1.43,2.27,0,3.78.53,4.53,1.6.75,1.07,1.12,2.98,1.12,5.75,0,2.48-.17,4.2-.5,5.16-.33.96-.91,1.67-1.73,2.12-.82.45-1.94.68-3.35.68s-2.57-.21-3.34-.63c-.77-.42-1.35-1.1-1.73-2.03s-.56-2.58-.56-4.94ZM86.07,175.29c0-2.83-.23-4.58-.68-5.25-.45-.67-1.13-1-2.04-1-1.06,0-1.79.4-2.19,1.2s-.59,2.15-.59,4.04v.82c0,2.12.16,3.66.48,4.63.32.97,1.09,1.46,2.3,1.46.74,0,1.38-.27,1.92-.82.53-.55.8-2.06.8-4.53v-.55Z" fill="#1c75bc"/>
    <path d="M92.64,175.17c0-3.24.43-5.34,1.3-6.29.86-.95,2.29-1.43,4.27-1.43,2.27,0,3.78.53,4.53,1.6.75,1.07,1.12,2.98,1.12,5.75,0,2.48-.17,4.2-.5,5.16-.33.96-.91,1.67-1.73,2.12-.82.45-1.94.68-3.35.68s-2.57-.21-3.34-.63c-.77-.42-1.35-1.1-1.73-2.03s-.56-2.58-.56-4.94ZM100.99,175.29c0-2.83-.23-4.58-.68-5.25-.45-.67-1.13-1-2.04-1-1.06,0-1.79.4-2.19,1.2s-.59,2.15-.59,4.04v.82c0,2.12.16,3.66.48,4.63.32.97,1.09,1.46,2.3,1.46.74,0,1.38-.27,1.92-.82.53-.55.8-2.06.8-4.53v-.55Z" fill="#1c75bc"/>
    <path d="M118.13,182.68h-3.13l-4.4-7.58h-.08v7.58h-2.77v-14.93h2.77v7.39h.08l4.72-7.39h2.78l-4.94,7.25,4.97,7.68Z" fill="#1c75bc"/>
    <path d="M125.95,167.75h2.65l2.55,11.28,2.74-11.28h2.6l-4.26,14.93h-2.16l-4.11-14.93Z" fill="#1c75bc"/>
    <path d="M147.91,182.68h-2.64l-.74-2.95h-4.29l-.75,2.95h-2.6l4.38-14.93h2.24l4.41,14.93ZM144.16,178.21l-1.78-7.08h-.07l-1.69,7.08h3.53Z" fill="#1c75bc"/>
    <path d="M159.65,179.15c0,2.49-1.52,3.74-4.55,3.74-3.33,0-5-1.24-5-3.71v-11.4h2.71v10.56c0,1.13.13,1.92.4,2.35.26.43.84.65,1.73.65s1.45-.23,1.67-.69.33-1.27.33-2.43v-10.44h2.71v11.38Z" fill="#1c75bc"/>
    <path d="M170.9,182.68h-7.34v-14.93h2.74v13.25h4.6v1.68Z" fill="#1c75bc"/>
    <path d="M180.53,169.45h-3.1v13.23h-2.74v-13.23h-3.09v-1.7h8.93v1.7Z" fill="#1c75bc"/>
  </g>
</svg>